<svg width="171" height="40" viewBox="0 0 171 40" fill="none" xmlns="http://www.w3.org/2000/svg">
<g clip-path="url(#clip0_10_116)">
<path d="M12.5219 22.4372C14.145 23.3101 14.9694 24.3712 14.9694 27.7586V39.5737H19.6003V26.6789C19.6003 21.1907 16.5424 17.6125 11.4203 17.1099C9.67334 16.952 8.21072 17.0952 6.67438 17.5809C6.13601 17.7494 5.63976 17.9706 5.19997 18.2368L4.90256 18.4142V4.98816L4.71173 5.08673C4.31658 5.29484 3.58991 5.68029 2.45377 6.30586C0.629287 7.335 0.0117188 8.5752 0.0117188 11.2199V39.5737H4.90256V23.1508L4.9906 23.0931C7.2772 21.5976 10.4434 21.3225 12.5219 22.4372Z" fill="white"/>
<path d="M60.0902 26.8516L60.1074 26.641C60.3825 23.0982 63.5879 21.4843 66.4499 21.4843C69.3225 21.4843 72.554 23.0969 72.8687 26.638L72.8885 26.8516H60.0902ZM74.7867 20.8023C72.7912 18.4142 69.8857 17.0994 66.6054 17.0994H66.5342C59.1739 17.1428 55.3219 22.9036 55.3219 28.5695C55.2971 31.7631 56.4741 34.7936 58.55 36.8852C60.5734 38.9233 63.3495 40 66.5789 40C70.4123 40 73.718 38.2888 76.1364 35.0515L76.2207 34.9398L72.6884 32.6924L72.6172 32.7914C70.8323 35.257 68.4535 35.573 66.5789 35.573C62.9914 35.573 60.7035 33.1625 60.0952 30.9256L60.027 30.6783H77.1276L77.1474 30.5718C77.8198 26.962 76.9591 23.4011 74.7867 20.8023Z" fill="white"/>
<path d="M29.8278 15.4199C29.4318 15.628 28.7051 16.0122 27.569 16.639C25.7445 17.6682 25.1282 18.9084 25.1282 21.5518V39.4701H30.0203V15.3196L29.8278 15.4199Z" fill="white"/>
<path d="M46.0586 39.3984V11.2186C46.0586 8.5752 46.6762 7.33542 48.5044 6.30334C49.6368 5.67903 50.3622 5.29484 50.7582 5.088L50.9503 4.98816V39.3984H46.0586Z" fill="white"/>
<path d="M35.6377 39.3984V11.2186C35.6377 8.5752 36.2548 7.33542 38.0823 6.30334C39.2155 5.67903 39.9409 5.29484 40.336 5.088L40.5281 4.98816V39.3984H35.6377Z" fill="white"/>
<path d="M81.9519 39.3984V11.2186C81.9519 8.5752 82.5682 7.33542 84.3965 6.30334C85.5288 5.67903 86.2555 5.29484 86.6502 5.088L86.8427 4.98816V39.3984H81.9519Z" fill="white"/>
<path d="M27.0421 13.7163C27.6318 13.3464 28.1875 13.0726 28.6353 12.8539C29.3514 12.5026 29.966 12.1985 30.4239 11.7022C32.6714 9.26943 32.1001 5.53201 32.0749 5.37403L32.0117 4.98816L31.8301 5.33444C31.8208 5.35297 30.8073 7.26297 29.0313 8.58868C28.8299 8.73738 28.5826 8.90462 28.2903 9.10093C27.7557 9.46153 27.0884 9.90933 26.2851 10.5383C23.6446 12.6092 23.6143 16.037 23.6143 16.1819V16.5505L23.8472 16.2636C23.8497 16.2581 24.7555 15.1523 27.0421 13.7163Z" fill="white"/>
<path d="M26.4778 6.82442C27.6889 6.06489 28.5487 5.47386 29.1069 4.87188C30.8576 2.97621 30.3904 0.471391 30.3677 0.366076L30.2969 0L30.1242 0.329005C30.1191 0.3408 29.3503 1.80089 27.9758 2.82497C27.8283 2.93577 27.6493 3.05667 27.4395 3.19737C27.0161 3.4834 26.4816 3.84274 25.8619 4.32845C23.8171 5.93051 23.7922 8.58571 23.7922 8.69777V9.06764L24.0252 8.77907C24.0294 8.77402 24.7034 7.9395 26.4778 6.82442Z" fill="white"/>
<path d="M96.5738 26.1447H94.3672V39.7499H96.5738V26.1447Z" fill="white"/>
<path d="M98.334 26.1445V28.1767H101.546V39.7304H103.772V28.1767H106.965V26.1445H98.334Z" fill="white"/>
<path d="M116.694 33.9409C116.074 33.8055 115.165 33.6891 115.145 32.8375C115.126 31.9474 116.055 31.6767 116.694 31.6767C117.371 31.6767 117.932 31.928 118.552 32.4118L119.713 31.1151C118.765 30.1283 117.661 29.8185 116.655 29.8185C114.836 29.8185 113.094 30.8832 113.094 32.8182C113.113 34.6764 114.604 35.4699 116.229 35.7406C116.887 35.8566 117.894 36.1471 117.894 37.0953C117.894 37.9274 116.964 38.1986 116.229 38.1599C115.455 38.1019 114.681 37.6568 114.139 36.9599L112.823 38.2372C113.713 39.4952 114.952 40.0563 116.287 40.0563C117.874 40.0563 119.945 39.282 119.945 37.0373C119.945 35.1215 118.358 34.2511 116.694 33.9409Z" fill="white"/>
<path d="M130.13 31.4056C129.028 30.3216 127.847 29.8185 126.473 29.8185C123.202 29.8379 121.402 32.2572 121.383 34.9278C121.383 37.5988 123.125 40.0369 126.473 40.0369C127.847 40.0369 129.163 39.4179 130.208 38.3725L129.008 37.0759C128.099 37.8888 127.421 38.1212 126.473 38.1212C124.518 38.1212 123.473 36.6501 123.473 34.9664C123.493 32.8375 124.944 31.7347 126.454 31.7541C127.286 31.7541 128.176 31.9667 128.95 32.7221L130.13 31.4056Z" fill="white"/>
<path d="M132.281 26.1445V39.6917H134.391V32.2406C135.01 31.8535 135.765 31.5635 136.461 31.5828C137.816 31.6215 139.016 32.415 139.016 33.963V39.6917H141.125V33.963C141.125 31.2537 139.268 29.7246 136.771 29.7246C136.113 29.7246 135.165 29.9378 134.41 30.5762V26.1445H132.281Z" fill="white"/>
<path d="M145.289 34.9084C145.289 32.7409 146.857 31.7347 148.308 31.7347C149.798 31.7347 151.308 32.7409 151.308 34.9084C151.308 37.0759 149.798 38.1212 148.308 38.1212C146.857 38.1212 145.289 37.0759 145.289 34.9084ZM153.417 34.9084C153.417 32.0445 151.269 29.8185 148.308 29.8185C145.366 29.8185 143.179 32.0445 143.179 34.9084C143.179 37.7535 145.366 40.0176 148.308 40.0176C151.269 40.0176 153.417 37.7535 153.417 34.9084Z" fill="white"/>
<path d="M157.148 34.9084C157.148 32.7409 158.715 31.7347 160.167 31.7347C161.657 31.7347 163.166 32.7409 163.166 34.9084C163.166 37.0759 161.657 38.1212 160.167 38.1212C158.715 38.1212 157.148 37.0759 157.148 34.9084ZM165.276 34.9084C165.276 32.0445 163.128 29.8185 160.167 29.8185C157.225 29.8185 155.038 32.0445 155.038 34.9084C155.038 37.7535 157.225 40.0176 160.167 40.0176C163.128 40.0176 165.276 37.7535 165.276 34.9084Z" fill="white"/>
<path d="M171 37.8142C169.819 37.9114 169.549 37.4662 169.549 36.6727V26.1445H167.439V36.6727C167.439 38.9368 168.678 39.9624 171 39.711V37.8142Z" fill="white"/>
</g>
<defs>
<clipPath id="clip0_10_116">
<rect width="171" height="40" fill="white"/>
</clipPath>
</defs>
</svg>
